# xmcd
#
# Track frame offsets:
#	150
#	7432
#	31272
#	53632
#	72805
#	96485
#	115210
#	135605
#	157197
#	178897
#	196907
#	218587
#	243632
#	267682
#	287962
#	305360
#	323792
#
# Disc length: 4376 seconds
#
# Revision: 1
# Processed by: cddbd v1.5.2PL0 Copyright (c) Steve Scherf et al.
# Submitted via: audiograbber 1.83.01
#
DISCID=09111611
DTITLE=Will Roc - Razz
DYEAR=2002
DGENRE=Rap
TTITLE0=Prologue
TTITLE1=Incorrigible
TTITLE2=Kilznod
TTITLE3=Busy
TTITLE4=Razz
TTITLE5=Hamjam
TTITLE6=Doshia (Moms)
TTITLE7=Call and Answer
TTITLE8=Picture dis
TTITLE9=Dog
TTITLE10=Serve Chilled
TTITLE11=Letyafingazdodatalkin
TTITLE12=Section 8
TTITLE13=A Matter Of Principle
TTITLE14=Why You Wanna Cry Now?
TTITLE15=Ecstatic
TTITLE16=Epilogue
EXTD=YEAR: 2002 ID3G: 0
EXTT0=
EXTT1=
EXTT2=
EXTT3=
EXTT4=
EXTT5=
EXTT6=
EXTT7=
EXTT8=
EXTT9=
EXTT10=
EXTT11=
EXTT12=
EXTT13=
EXTT14=
EXTT15=
EXTT16=
PLAYORDER=
